<svg width="149" height="150" viewBox="0 0 149 150" fill="none" xmlns="http://www.w3.org/2000/svg">
<path d="M63.0988 109.573C63.5481 109.086 63.9359 108.545 64.2535 107.964C64.5889 107.367 64.8605 106.737 65.064 106.084C65.4849 104.737 65.6708 103.327 65.6137 101.917C65.5841 101.199 65.5108 100.483 65.3941 99.7735C65.268 99.0575 65.0956 98.3447 64.8969 97.6347C64.6994 96.9244 64.4599 96.2191 64.2046 95.5158C64.0788 95.1638 63.9388 94.8142 63.8052 94.4626L63.3676 93.4155C62.7325 91.9451 62.0513 90.4225 61.3427 89.0147C60.6199 87.5896 59.7895 86.2193 58.9324 84.8009C58.3359 83.8317 57.79 82.8322 57.2968 81.8065C56.8019 80.7323 56.4171 79.6107 56.1482 78.4589C55.8904 77.317 55.7263 76.1559 55.6575 74.9873L55.6288 74.1261L55.6149 73.6952C55.6132 73.6204 55.6092 73.5581 55.6118 73.473L55.627 73.2024C55.6482 72.8553 55.6949 72.5102 55.7668 72.17C55.8481 71.854 55.9219 71.5287 56.0307 71.2336C56.4393 70.0673 57.0169 68.9674 57.745 67.9689C58.4721 66.9222 59.3844 66.0172 60.4369 65.2985L60.8942 65.033C61.0519 64.9485 61.2143 64.873 61.3805 64.8069C61.4609 64.7732 61.5509 64.7328 61.6239 64.7059L61.8363 64.63L62.2615 64.4791C62.5493 64.384 62.8522 64.3087 63.1475 64.2245C63.4454 64.1581 63.7437 64.0954 64.0424 64.0363C65.2174 63.8391 66.4088 63.7574 67.5997 63.7922C69.9009 63.8854 72.1832 64.2485 74.3998 64.8739C76.5743 65.4743 78.7034 66.2281 80.7714 67.1295C84.8653 68.9218 88.7815 71.0955 92.468 73.6218C93.0332 74.0079 93.6019 74.3971 94.1519 74.7983L94.9777 75.3979L95.7581 75.9292C96.7899 76.6309 97.8884 77.229 99.0378 77.7148C100.142 78.1882 101.308 78.5031 102.501 78.6503C103.635 78.8022 104.789 78.7219 105.891 78.4143C108.064 77.8202 109.784 76.0487 110.699 73.8368C111.162 72.7033 111.439 71.5025 111.519 70.2807C111.61 69.028 111.56 67.769 111.369 66.5275C111.314 66.2154 111.285 65.8993 111.207 65.5901L110.997 64.6587C110.819 64.0446 110.66 63.4307 110.43 62.8143C110.223 62.1997 109.981 61.5792 109.754 60.961C109.518 60.3454 109.313 59.7129 109.029 59.124L108.223 57.331C107.929 56.7453 107.614 56.1697 107.311 55.5883C107.155 55.3002 107.014 55.0038 106.845 54.7223L106.334 53.8819L105.823 53.0411C105.654 52.76 105.486 52.4782 105.292 52.2131L104.17 50.5956C103.99 50.3208 103.78 50.0685 103.578 49.8096L102.97 49.0354L102.362 48.261C102.153 48.0084 101.929 47.7678 101.713 47.5206C101.275 47.0321 100.85 46.5311 100.401 46.0521C96.3932 41.845 91.6796 38.3719 86.474 35.7898C85.1406 35.0893 83.9978 34.6108 83.094 34.1164L82.7634 33.9379L82.4449 33.7847C82.2392 33.6836 82.0462 33.5846 81.866 33.4876C81.5053 33.2939 81.1939 33.1084 80.9268 32.9318C80.149 32.4171 80.2138 32.1606 81.0214 32.1864C81.6106 32.2239 82.1958 32.3083 82.7715 32.4389C82.9598 32.481 83.1633 32.515 83.3687 32.5767C83.5739 32.6396 83.7895 32.7058 84.0154 32.7752C84.466 32.918 84.9545 33.082 85.4809 33.2671C88.2249 34.323 90.845 35.6763 93.2945 37.3026C98.8659 41.0428 103.63 45.8634 107.304 51.4787C109.117 54.2869 110.629 57.2782 111.816 60.4032L112.264 61.5679L112.693 62.7532C112.822 63.1576 112.941 63.5692 113.065 63.9775C113.18 64.3893 113.27 64.8089 113.374 65.2247C113.764 66.9163 113.925 68.6526 113.854 70.3872C113.817 70.8707 113.801 71.3584 113.718 71.8458C113.68 72.0893 113.658 72.3353 113.605 72.5784L113.447 73.3093C113.224 74.3014 112.88 75.2623 112.422 76.1702C112.311 76.4032 112.185 76.6291 112.046 76.8466C111.919 77.0723 111.778 77.2904 111.626 77.4999L111.158 78.1247L110.631 78.7039C109.905 79.449 109.062 80.0692 108.134 80.5398C106.67 81.2486 105.062 81.6083 103.436 81.5908C101.875 81.5617 100.33 81.2693 98.8661 80.7259L98.3262 80.5343C98.1501 80.4633 97.9782 80.3849 97.8041 80.3104C97.4598 80.1551 97.1024 80.02 96.7747 79.8387C96.4418 79.6657 96.1054 79.4973 95.7759 79.3196L94.8153 78.7475C94.4895 78.5649 94.1925 78.3403 93.8809 78.1367C93.5751 77.9288 93.2538 77.7173 92.9822 77.5161C92.4174 77.1056 91.8491 76.7067 91.2809 76.312C89.0033 74.7376 86.6405 73.2901 84.2034 71.9762C81.7848 70.6645 79.2811 69.5165 76.709 68.5398C74.8202 67.8187 72.8727 67.2618 70.8882 66.8754C68.9602 66.4803 66.9823 66.3886 65.026 66.6036C64.5586 66.6669 64.0957 66.7596 63.64 66.8813C63.4167 66.9493 63.1935 66.9977 62.9693 67.0885L62.6331 67.2106L62.549 67.2411L62.4836 67.2704L62.3545 67.3274L62.2245 67.3822L62.0996 67.4566C62.0165 67.5087 61.9318 67.5488 61.848 67.608C61.6738 67.7282 61.5065 67.8582 61.3469 67.9973C61.0062 68.2932 60.6904 68.6167 60.4028 68.9645C59.8121 69.6881 59.3143 70.4828 58.9208 71.33C58.7363 71.7367 58.585 72.1578 58.4684 72.589C58.415 72.7876 58.3729 72.989 58.3424 73.1923L58.3214 73.4687C58.3195 73.4927 58.3161 73.5123 58.3153 73.5401L58.3163 73.6336L58.3162 73.8207C58.26 75.5718 58.4544 77.322 58.8936 79.018C59.3535 80.6784 60.1601 82.2474 61.0779 83.8642C61.9921 85.4747 62.9349 87.1547 63.7267 88.8948L64.0257 89.5471L64.3073 90.1904L64.8659 91.4852C65.2351 92.3529 65.5927 93.2314 65.9269 94.1246C66.6265 95.9229 67.1416 97.7876 67.4641 99.6901C67.8018 101.635 67.782 103.625 67.4055 105.563C67.0509 107.55 66.2058 109.417 64.9468 110.995C64.2951 111.785 63.5271 112.471 62.669 113.03C62.2347 113.313 61.7769 113.559 61.3007 113.765C60.819 113.965 60.3203 114.122 59.8106 114.233C59.0233 114.397 58.2199 114.473 57.4156 114.458C56.6387 114.452 55.8925 114.386 55.1691 114.311C53.7229 114.156 52.3568 113.992 51.0114 113.944C48.4103 113.863 45.8116 114.167 43.2997 114.847C42.8796 114.966 42.4483 115.04 42.0128 115.069C41.7158 115.069 41.5532 114.999 41.5371 114.865C41.5211 114.731 41.6533 114.538 41.9459 114.295C42.3717 113.964 42.8383 113.69 43.3342 113.479C44.2603 113.071 45.2122 112.725 46.1837 112.443C47.1859 112.16 48.2086 111.956 49.2426 111.833C50.2821 111.712 51.3287 111.663 52.375 111.686C53.412 111.704 54.4262 111.785 55.3927 111.853C55.7915 111.88 56.1808 111.91 56.562 111.926C56.9442 111.957 57.314 111.965 57.6767 111.969C58.3609 111.983 59.0439 111.908 59.7088 111.746C60.3544 111.58 60.9694 111.312 61.5304 110.953C62.1159 110.581 62.649 110.132 63.1153 109.619L63.0988 109.573Z" fill="#EB4E36"/>
<path d="M48.3092 120.512C47.6219 120.078 46.9062 119.678 46.1646 119.299C45.7741 119.085 45.3676 118.903 44.9489 118.753C43.4646 118.268 41.9224 117.804 40.4197 117.224C40.1723 117.128 39.95 116.977 39.7698 116.782C39.5896 116.587 39.4562 116.354 39.3798 116.1C39.3033 115.846 39.2859 115.578 39.3288 115.316C39.3717 115.054 39.4737 114.806 39.6272 114.589L39.7467 114.424L41.1605 112.456C41.9997 111.295 42.8135 110.135 43.5757 108.949C44.3417 107.765 45.0555 106.547 45.7428 105.286C45.9779 104.906 46.2673 104.562 46.6018 104.266C46.9132 103.961 47.4518 103.936 48.0742 104.067C48.9808 104.257 49.7174 104.911 49.6404 105.55C49.5765 105.951 49.412 106.33 49.1623 106.65C48.0935 108.16 47.1834 109.776 46.4468 111.473C46.2361 111.946 46.0531 112.47 45.6653 112.805C44.4333 113.873 43.6747 115.27 42.5733 116.392L42.4042 116.568L41.8124 114.106C42.7236 114.607 43.6928 114.99 44.6452 115.44C46.4675 116.298 48.37 117.189 50.2132 118.192C50.5799 118.388 50.9066 118.652 51.1765 118.968C51.4542 119.322 51.6592 119.727 51.7797 120.16C51.8143 120.249 51.8274 120.345 51.8181 120.44C51.8088 120.535 51.7773 120.627 51.7261 120.707C51.5905 120.899 51.3976 121.043 51.175 121.119L50.9227 121.187C50.8492 121.198 50.7749 121.201 50.7008 121.199C50.5581 121.203 50.4152 121.2 50.2729 121.188C50.0114 121.143 49.7525 121.084 49.4973 121.011C49.0958 120.86 48.707 120.678 48.3347 120.465L48.3092 120.512Z" fill="#EB4E36"/>
</svg>
